<svg id="visual" viewBox="0 0 960 540" width="960" height="540" xmlns="http://www.w3.org/2000/svg" xmlns:xlink="http://www.w3.org/1999/xlink" version="1.1"><g stroke-width="1" stroke-linejoin="bevel"><path d="M444 272L493 325L541 303Z" fill="#15384f" stroke="#15384f"></path><path d="M596 334L596 297L541 303Z" fill="#112e42" stroke="#112e42"></path><path d="M544 160L421 181L444 272Z" fill="#00101c" stroke="#00101c"></path><path d="M493 325L596 334L541 303Z" fill="#00101c" stroke="#00101c"></path><path d="M544 160L444 272L541 303Z" fill="#0c2435" stroke="#0c2435"></path><path d="M707 287L615 243L596 297Z" fill="#19435d" stroke="#19435d"></path><path d="M596 297L615 243L541 303Z" fill="#112e42" stroke="#112e42"></path><path d="M615 243L544 160L541 303Z" fill="#15384f" stroke="#15384f"></path><path d="M327 228L384 321L444 272Z" fill="#15384f" stroke="#15384f"></path><path d="M444 272L384 321L493 325Z" fill="#112e42" stroke="#112e42"></path><path d="M518 495L639 388L596 334Z" fill="#0c2435" stroke="#0c2435"></path><path d="M471 124L399 161L421 181Z" fill="#246688" stroke="#246688"></path><path d="M421 181L327 228L444 272Z" fill="#081a28" stroke="#081a28"></path><path d="M544 160L471 124L421 181Z" fill="#112e42" stroke="#112e42"></path><path d="M384 321L418 418L493 325Z" fill="#297ea6" stroke="#297ea6"></path><path d="M399 161L327 228L421 181Z" fill="#246688" stroke="#246688"></path><path d="M384 321L276 344L418 418Z" fill="#00101c" stroke="#00101c"></path><path d="M518 495L596 334L493 325Z" fill="#15384f" stroke="#15384f"></path><path d="M596 334L707 287L596 297Z" fill="#1d4e6b" stroke="#1d4e6b"></path><path d="M399 161L321 207L327 228Z" fill="#297ea6" stroke="#297ea6"></path><path d="M707 287L650 153L615 243Z" fill="#1d4e6b" stroke="#1d4e6b"></path><path d="M615 243L650 153L544 160Z" fill="#205a7a" stroke="#205a7a"></path><path d="M544 160L573 48L471 124Z" fill="#0c2435" stroke="#0c2435"></path><path d="M639 388L707 287L596 334Z" fill="#0c2435" stroke="#0c2435"></path><path d="M719 130L653 121L650 153Z" fill="#1d4e6b" stroke="#1d4e6b"></path><path d="M650 153L653 121L544 160Z" fill="#1d4e6b" stroke="#1d4e6b"></path><path d="M471 124L334 127L399 161Z" fill="#297ea6" stroke="#297ea6"></path><path d="M399 161L334 127L321 207Z" fill="#081a28" stroke="#081a28"></path><path d="M418 418L518 495L493 325Z" fill="#19435d" stroke="#19435d"></path><path d="M206 231L327 228L321 207Z" fill="#277297" stroke="#277297"></path><path d="M206 231L276 344L327 228Z" fill="#15384f" stroke="#15384f"></path><path d="M327 228L276 344L384 321Z" fill="#297ea6" stroke="#297ea6"></path><path d="M403 540L515 540L518 495Z" fill="#112e42" stroke="#112e42"></path><path d="M639 388L731 294L707 287Z" fill="#15384f" stroke="#15384f"></path><path d="M707 287L719 130L650 153Z" fill="#00101c" stroke="#00101c"></path><path d="M653 121L573 48L544 160Z" fill="#15384f" stroke="#15384f"></path><path d="M471 124L329 0L334 127Z" fill="#15384f" stroke="#15384f"></path><path d="M808 204L719 130L707 287Z" fill="#277297" stroke="#277297"></path><path d="M653 121L692 0L573 48Z" fill="#1d4e6b" stroke="#1d4e6b"></path><path d="M403 540L518 495L418 418Z" fill="#19435d" stroke="#19435d"></path><path d="M518 495L545 540L639 388Z" fill="#081a28" stroke="#081a28"></path><path d="M639 388L830 375L731 294Z" fill="#00101c" stroke="#00101c"></path><path d="M515 540L545 540L518 495Z" fill="#00101c" stroke="#00101c"></path><path d="M556 0L527 0L573 48Z" fill="#297ea6" stroke="#297ea6"></path><path d="M573 48L527 0L471 124Z" fill="#277297" stroke="#277297"></path><path d="M692 0L556 0L573 48Z" fill="#15384f" stroke="#15384f"></path><path d="M282 540L403 540L418 418Z" fill="#081a28" stroke="#081a28"></path><path d="M334 127L206 231L321 207Z" fill="#297ea6" stroke="#297ea6"></path><path d="M189 366L253 441L276 344Z" fill="#277297" stroke="#277297"></path><path d="M276 344L253 441L418 418Z" fill="#0c2435" stroke="#0c2435"></path><path d="M811 109L725 78L719 130Z" fill="#277297" stroke="#277297"></path><path d="M719 130L725 78L653 121Z" fill="#205a7a" stroke="#205a7a"></path><path d="M830 375L808 204L731 294Z" fill="#1d4e6b" stroke="#1d4e6b"></path><path d="M731 294L808 204L707 287Z" fill="#246688" stroke="#246688"></path><path d="M527 0L329 0L471 124Z" fill="#205a7a" stroke="#205a7a"></path><path d="M334 127L158 123L206 231Z" fill="#297ea6" stroke="#297ea6"></path><path d="M684 540L716 509L639 388Z" fill="#081a28" stroke="#081a28"></path><path d="M206 231L189 366L276 344Z" fill="#081a28" stroke="#081a28"></path><path d="M545 540L684 540L639 388Z" fill="#297ea6" stroke="#297ea6"></path><path d="M802 0L692 0L725 78Z" fill="#277297" stroke="#277297"></path><path d="M725 78L692 0L653 121Z" fill="#15384f" stroke="#15384f"></path><path d="M253 441L282 540L418 418Z" fill="#1d4e6b" stroke="#1d4e6b"></path><path d="M208 482L282 540L253 441Z" fill="#19435d" stroke="#19435d"></path><path d="M329 0L280 0L334 127Z" fill="#00101c" stroke="#00101c"></path><path d="M716 509L830 375L639 388Z" fill="#205a7a" stroke="#205a7a"></path><path d="M206 231L147 300L189 366Z" fill="#15384f" stroke="#15384f"></path><path d="M189 366L208 482L253 441Z" fill="#246688" stroke="#246688"></path><path d="M132 228L147 300L206 231Z" fill="#081a28" stroke="#081a28"></path><path d="M808 204L811 109L719 130Z" fill="#246688" stroke="#246688"></path><path d="M921 170L811 109L808 204Z" fill="#112e42" stroke="#112e42"></path><path d="M280 0L236 29L334 127Z" fill="#277297" stroke="#277297"></path><path d="M104 471L208 482L189 366Z" fill="#15384f" stroke="#15384f"></path><path d="M158 123L132 228L206 231Z" fill="#112e42" stroke="#112e42"></path><path d="M236 29L158 123L334 127Z" fill="#15384f" stroke="#15384f"></path><path d="M817 501L855 400L830 375Z" fill="#112e42" stroke="#112e42"></path><path d="M684 540L762 540L716 509Z" fill="#277297" stroke="#277297"></path><path d="M208 482L232 540L282 540Z" fill="#15384f" stroke="#15384f"></path><path d="M817 501L830 375L716 509Z" fill="#19435d" stroke="#19435d"></path><path d="M960 237L921 170L808 204Z" fill="#15384f" stroke="#15384f"></path><path d="M762 540L817 501L716 509Z" fill="#00101c" stroke="#00101c"></path><path d="M236 29L143 89L158 123Z" fill="#246688" stroke="#246688"></path><path d="M158 123L61 220L132 228Z" fill="#15384f" stroke="#15384f"></path><path d="M129 0L143 89L236 29Z" fill="#15384f" stroke="#15384f"></path><path d="M819 0L802 0L811 109Z" fill="#081a28" stroke="#081a28"></path><path d="M811 109L802 0L725 78Z" fill="#081a28" stroke="#081a28"></path><path d="M147 300L92 335L189 366Z" fill="#00101c" stroke="#00101c"></path><path d="M208 482L88 540L232 540Z" fill="#0c2435" stroke="#0c2435"></path><path d="M132 228L92 335L147 300Z" fill="#1d4e6b" stroke="#1d4e6b"></path><path d="M61 220L92 335L132 228Z" fill="#112e42" stroke="#112e42"></path><path d="M817 501L896 399L855 400Z" fill="#297ea6" stroke="#297ea6"></path><path d="M855 400L896 399L830 375Z" fill="#00101c" stroke="#00101c"></path><path d="M960 36L819 0L811 109Z" fill="#00101c" stroke="#00101c"></path><path d="M960 237L808 204L830 375Z" fill="#15384f" stroke="#15384f"></path><path d="M143 89L61 220L158 123Z" fill="#00101c" stroke="#00101c"></path><path d="M88 540L104 471L0 503Z" fill="#112e42" stroke="#112e42"></path><path d="M92 335L104 471L189 366Z" fill="#297ea6" stroke="#297ea6"></path><path d="M143 89L0 174L61 220Z" fill="#1d4e6b" stroke="#1d4e6b"></path><path d="M280 0L129 0L236 29Z" fill="#19435d" stroke="#19435d"></path><path d="M896 399L960 237L830 375Z" fill="#112e42" stroke="#112e42"></path><path d="M960 237L960 225L921 170Z" fill="#246688" stroke="#246688"></path><path d="M921 170L960 36L811 109Z" fill="#112e42" stroke="#112e42"></path><path d="M896 399L960 385L960 237Z" fill="#297ea6" stroke="#297ea6"></path><path d="M960 496L960 385L896 399Z" fill="#19435d" stroke="#19435d"></path><path d="M762 540L898 540L817 501Z" fill="#112e42" stroke="#112e42"></path><path d="M817 501L898 540L896 399Z" fill="#297ea6" stroke="#297ea6"></path><path d="M0 503L104 471L92 335Z" fill="#1d4e6b" stroke="#1d4e6b"></path><path d="M104 471L88 540L208 482Z" fill="#0c2435" stroke="#0c2435"></path><path d="M0 174L0 271L61 220Z" fill="#246688" stroke="#246688"></path><path d="M61 220L0 271L92 335Z" fill="#112e42" stroke="#112e42"></path><path d="M0 271L0 294L92 335Z" fill="#112e42" stroke="#112e42"></path><path d="M0 74L0 174L143 89Z" fill="#246688" stroke="#246688"></path><path d="M898 540L960 496L896 399Z" fill="#1d4e6b" stroke="#1d4e6b"></path><path d="M960 225L960 36L921 170Z" fill="#081a28" stroke="#081a28"></path><path d="M129 0L47 0L143 89Z" fill="#081a28" stroke="#081a28"></path><path d="M898 540L960 540L960 496Z" fill="#297ea6" stroke="#297ea6"></path><path d="M47 0L0 74L143 89Z" fill="#246688" stroke="#246688"></path><path d="M960 36L960 0L819 0Z" fill="#205a7a" stroke="#205a7a"></path><path d="M0 294L0 503L92 335Z" fill="#00101c" stroke="#00101c"></path><path d="M0 503L0 540L88 540Z" fill="#277297" stroke="#277297"></path><path d="M47 0L0 0L0 74Z" fill="#0c2435" stroke="#0c2435"></path></g></svg>