<svg width="814" height="599" viewBox="0 0 814 599" fill="none" xmlns="http://www.w3.org/2000/svg">
<g filter="url(#filter0_d_8_3)">
<path d="M760.419 414.394C780.294 482.081 790.232 515.925 772.992 539.125C755.752 562.326 720.48 562.575 649.937 563.073L119.774 566.816C65.0927 567.202 37.7518 567.395 20.6445 550.527C3.53721 533.66 3.34418 506.319 2.95813 451.638L0.819014 148.645C0.432964 93.9634 0.239939 66.6226 17.1074 49.5153C33.9748 32.408 61.3157 32.2149 115.997 31.8289L559.51 28.6977C601.613 28.4005 622.665 28.2518 638.25 39.8336C653.836 51.4153 659.767 71.6146 671.63 112.013L760.419 414.394Z" fill="#89D2F9"/>
</g>
<defs>
<filter id="filter0_d_8_3" x="-27.2855" y="0.613037" width="841.135" height="598.307" filterUnits="userSpaceOnUse" color-interpolation-filters="sRGB">
<feFlood flood-opacity="0" result="BackgroundImageFix"/>
<feColorMatrix in="SourceAlpha" type="matrix" values="0 0 0 0 0 0 0 0 0 0 0 0 0 0 0 0 0 0 127 0" result="hardAlpha"/>
<feOffset dx="2" dy="2"/>
<feGaussianBlur stdDeviation="15"/>
<feComposite in2="hardAlpha" operator="out"/>
<feColorMatrix type="matrix" values="0 0 0 0 0.242979 0 0 0 0 0.676648 0 0 0 0 0.908333 0 0 0 0.3 0"/>
<feBlend mode="normal" in2="BackgroundImageFix" result="effect1_dropShadow_8_3"/>
<feBlend mode="normal" in="SourceGraphic" in2="effect1_dropShadow_8_3" result="shape"/>
</filter>
</defs>
</svg>
